<svg viewBox="0 0 512 512" xmlns="http://www.w3.org/2000/svg">
  <path d="m423 106.7c-48.4 23-95.8 45.7-105.5 50.3l-17.6 8.3c0.1 3.9-0.1 12-0.3 20.4-0.2 8.5-0.4 16.6-0.4 18 0 1.6 0 2.6 0.2 2.5 0.1-0.1 7-3.5 15.2-7.7 8.3-4.2 15.1-7.7 15.3-7.9 0.1-0.2 40.1-20.6 88.9-45.4 48.7-24.7 88.6-45 88.6-45 0-0.1 1-7.6 2.1-16.7 1.1-9.2 2-17.1 2-17.7 0-0.7-0.1-1.1-0.3-1-0.2 0-39.9 18.8-88.2 41.9zm-285.8-26.1c-8.3 3-15.3 5.7-15.4 5.8s0.2 6.9 0.9 18.6c0.6 10.1 1.1 18.4 1.2 18.5 0 0 5.3-2 11.9-4.6 6.5-2.5 12-4.7 12.3-4.7 0.2-0.1 0.4-0.5 0.4-0.7 0-0.4-0.2-4-0.4-8.1-0.2-4.2-0.3-7.5-0.3-7.6 0.1 0 6.9-2.5 15.2-5.7 8.3-3.1 15.2-5.7 15.3-5.8v-0.2c-0.1 0-5.5-2.3-12-5.1-6.6-2.8-12.3-5.2-12.8-5.4-0.5-0.3-0.9-0.5-1-0.5s-6.9 2.5-15.3 5.5zm54.1 23.5-15.4 6.1c-0.1 1.3 0.1 9.5 0.5 19.1 0.3 9.5 0.6 17.8 0.6 18.3 0 0.8 0.1 0.9 0.6 0.8 0.3-0.1 6.5-2.7 13.7-5.7l13.3-5.6c-0.1-9.1-0.2-12.3-0.2-12.9v-1.3c8.7-3.6 11.9-4.9 12.7-5.3 0.9-0.3 5.2-2.1 9.6-3.9 4.5-1.8 8.1-3.4 8.1-3.5 0.1-0.2-6.2-2.9-13.8-6.1s-14-5.9-14.1-6c-0.2 0-7.2 2.7-15.6 6zm-110.2 19.3c-0.2 0.1-8.1 3.2-17.5 6.8l-17 6.4c0.1 1.4 1 10.2 2 20.5 1.1 10.3 1.9 18.8 2 18.8 0 0 5.9 3.3 13 7.2 7.2 3.9 13.2 7.2 13.3 7.2 0.3 0 0.3-0.4 0.2-1.2-0.1-0.7-0.8-9.5-1.7-19.7s-1.6-18.6-1.5-18.6c0-0.1 2.3-1.1 5-2.2s4.9-2.1 5-2.2c0-0.1-0.4-5.3-0.9-11.6s-1-11.4-1.1-11.5c-0.2-0.2-0.5-0.1-0.8 0.1zm169.4 6.3-15.5 6.7c0 12.6 0.1 21.5 0.2 28l0.2 11.7 30.8-14.2c0.3-8.9 0.4-11.6 0.4-11.6s6.8-3.1 15.1-6.9c8.3-3.7 15.1-6.9 15.1-7 0-0.2-6.8-3.2-15.2-6.7-8.4-3.6-15.3-6.5-15.5-6.6-0.1 0-7.2 3-15.6 6.6zm-239.2 14.5c-5.7 2.2-10.4 4-10.4 4.1s5.3 3.1 11.8 6.7 11.9 6.4 12 6.3c0.1 0-0.3-4.4-0.9-9.8-0.6-5.3-1.1-10-1.2-10.4-0.1-0.6-0.2-0.9-0.5-0.8-0.3 0-5.1 1.7-10.8 3.9zm125.9 6.7c-0.3 0.2-8.2 3.5-17.6 7.3-9.3 3.9-17 7.1-17.1 7.2s0.5 9.3 1.3 20.3c0.8 11.1 1.6 20.2 1.7 20.3s6.6 3.8 14.6 8.2c7.9 4.4 14.5 7.9 14.5 7.8 0.1-0.1-0.4-9.3-1.1-20.5-0.8-14.7-1.1-20.4-0.9-20.7 0.2-0.1 1.8-0.9 3.7-1.7s3.4-1.5 3.4-1.6c-0.1-0.1-0.5-5.8-0.8-12.9-0.4-7-0.8-13-0.9-13.4-0.2-0.5-0.3-0.6-0.8-0.3zm44.7 38.1c-9.6 4.4-17.6 8-17.7 8.1-0.2 0 0.1 9.2 0.7 21 0.7 16.8 0.9 21.1 1.2 21.3 0.2 0.1 7.5 4.2 16.3 9 11.8 6.5 15.9 8.8 16 9.2 0 0.3 1.1 39.6 2.4 87.3 1.2 47.7 2.7 104.7 3.3 126.7s1.2 40.1 1.3 40.1c0 0.1 0.2 0.1 0.4 0s6.9-4.8 15.1-10.5l14.7-10.3c0.1-8-0.3-64.5-0.9-130.9-0.5-66.4-1.1-120.7-1.1-120.8-0.1-0.1-7.5-4-16.4-8.6-8.8-4.6-16.1-8.4-16.1-8.4-0.1 0-0.3-8.6-0.6-19.1-0.3-10.4-0.5-19.7-0.5-20.5 0-1.1-0.1-1.6-0.3-1.6s-8.2 3.6-17.8 8z" fill="#494949"/>
  <path d="m272.9 13.1c-20.1 7-41.9 14.7-48.5 17s-12.7 4.5-13.6 4.8-20 7-42.4 14.8c-22.4 7.9-40.9 14.3-41.1 14.3s-7.4 2.4-15.9 5.4c-8.4 3-15.4 5.6-15.5 5.7 0 0.2 0.6 8.4 1.3 18.4s1.4 18.2 1.5 18.3 5.7 2.7 12.4 5.9c6.8 3.2 12.4 5.8 12.5 5.8s0.2-0.4 0.2-1c-0.1-0.5-0.5-8.8-1.1-18.4-0.7-11.2-1-17.6-0.9-17.7 0.1-0.2 7.1-2.8 15.5-5.8l15.3-5.5c1.4 0.7 7.1 3.2 13.7 5.9 6.5 2.8 11.9 5.1 12 5.1v0.2c-0.1 0.1-7 2.7-15.3 5.8-8.3 3.2-15.1 5.7-15.2 5.7 0 0.1 0.1 3.4 0.3 7.6 0.2 4.1 0.4 8.2 0.4 9.2s0.2 6.1 0.5 11.4c0.4 7 0.6 9.7 0.8 9.9s6.4 3.1 13.7 6.6c7.4 3.4 13.4 6.2 13.5 6.2 0-0.1-0.3-8.7-0.6-19.2-0.4-10.5-0.6-19.2-0.5-19.3s7.1-2.9 15.5-6.2l15.2-6c18.8 7.9 25.1 10.6 26.2 11.1 1 0.4 1.9 0.9 1.9 1 0 0.2-3.6 1.8-8 3.6s-8.7 3.6-9.6 3.9c-0.8 0.4-4 1.7-7.1 3l-5.6 2.3c0 1.9 0.1 5.2 0.1 8.5s0.2 11.5 0.3 18.2c0.2 8.5 0.4 12.3 0.6 12.5 0.1 0.2 6.7 3.4 14.6 7.1s14.6 6.8 14.8 6.8c0.4 0 0.5-1.1 0.3-19.8l-0.1-19.8c23.9-10.3 31-13.2 31.1-13.2 0.2 0 7.1 2.9 15.5 6.5 8.4 3.5 15.2 6.5 15.2 6.7 0 0.1-6.8 3.3-15.1 7l-15.1 6.8c-0.2 5.4-0.4 14.5-0.5 23.8l-0.2 16.9c25.2 11.9 32.6 15.3 32.8 15.3 0.1 0 0.4-0.2 0.4-0.5 0.1-0.3 0.3-9.5 0.6-20.5 0.2-10.9 0.4-19.9 0.4-19.9s7.9-3.8 17.4-8.3c9.5-4.6 57-27.2 105.6-50.3 48.5-23.2 88.1-42.2 88.1-42.4s-0.3-0.4-0.8-0.5c-0.4-0.1-45.3-14.5-99.8-31.9-74.4-23.8-99.3-31.7-100.1-31.6-0.8 0-11.5 3.6-37.6 12.8z" fill="#9bff00"/>
  <path d="m38.2 116.6c-9.5 3.5-17.4 6.5-17.5 6.7s0.2 3.8 0.8 8.8c0.5 4.7 1.5 13.2 2.2 18.8 0.6 5.7 1.1 10.4 1 10.5-0.1 0-5.6-2.8-12.1-6.4s-11.9-6.5-12-6.5-0.1 0.4-0.1 0.8 1.5 12.8 3.3 27.5c1.7 14.8 4.1 33.7 5.1 42.1s5.8 48.1 10.7 88.2c8.5 69.6 8.9 73.1 9.4 73.6 0.4 0.3 39.9 29.8 88 65.7s87.6 65.2 87.8 65.3c0.4 0.1 0.4-0.2 0.3-3.8-0.1-2-0.6-20.1-1.1-40-0.5-20-2-75.3-3.3-123-1.2-47.7-2.3-87-2.3-87.3-0.1-0.3-4.2-2.7-16.1-9.2-8.7-4.8-16-8.9-16.2-9-0.3-0.2-0.5-4.5-1.3-21.3-0.5-11.8-0.8-21-0.6-21 0.1-0.1 8.1-3.7 17.7-8 11.2-5.1 17.5-8.1 17.5-8.3 0-0.3-5.9-3.3-15.4-7.9-8.4-4.2-15.5-7.6-15.7-7.6-0.1 0-6.5 2.7-14.2 6-7.6 3.3-14.1 6.1-14.4 6.3s-2 1-3.7 1.7-3.2 1.4-3.4 1.6 0.1 5.9 0.9 20.6c0.7 11.2 1.2 20.4 1.1 20.5 0 0.1-6.6-3.4-14.5-7.8-8-4.4-14.6-8.1-14.6-8.2-0.1 0-0.9-9.2-1.7-20.2-0.8-11.1-1.4-20.2-1.3-20.3 0-0.1 8-3.5 17.6-7.5 10.6-4.3 17.5-7.3 17.5-7.5s-6-3.3-13.9-7.1c-7.6-3.8-14-6.9-14.3-6.9-0.2 0-3.1 1.1-6.5 2.4-3.3 1.3-8.9 3.5-12.4 4.9s-6.5 2.6-6.6 2.7c-0.2 0.1-2.4 1.1-5.1 2.2s-4.9 2-4.9 2.1c-0.1 0 0.6 8.4 1.5 18.6 0.8 10.2 1.6 19 1.7 19.7 0.1 0.8 0.1 1.2-0.2 1.2-0.1 0-6.1-3.3-13.3-7.2-7.1-3.9-13-7.2-13.1-7.2 0 0-0.9-8.8-2-19.6s-1.9-19.7-1.8-19.7c0.1-0.1 7.9-3.1 17.4-6.7 11.8-4.4 17.3-6.6 17.3-6.9 0-0.2-4.7-2.7-12.6-6.5-7-3.4-12.8-6.2-13-6.2-0.3 0-8.2 2.8-17.6 6.3z" fill="#3b6dd9"/>
</svg>